<?xml version="1.0" encoding="utf-8"?>
<!-- Generator: Adobe Illustrator 26.0.2, SVG Export Plug-In . SVG Version: 6.00 Build 0)  -->
<svg version="1.1" id="Layer_1" xmlns="http://www.w3.org/2000/svg" xmlns:xlink="http://www.w3.org/1999/xlink" x="0px" y="0px"
	 viewBox="0 0 584 96.5" style="enable-background:new 0 0 584 96.5;" xml:space="preserve">
<style type="text/css">
	.st0{fill:#09CAF5;}
	.st1{fill:#312F30;}
	.st2{enable-background:new    ;}
</style>
<g id="Layer_2_00000057118935764917216470000009732079194098555554_">
	<g id="Layer_1-2">
		<g>
			<path class="st0" d="M148.9,77.2L148.9,77.2c0.3-0.1,0.6-0.2,0.8-0.3c0.1-0.1,0.3-0.2,0.4-0.3c0.1-0.1,0.2-0.2,0.3-0.4l0.1-0.2
				c0.3-0.7,0.3-1.4,0-2.1c-0.1-0.3-0.3-0.6-0.4-0.9c-2.5-4.2-5-8.3-7.6-12.4c-4.4-6.9-8.8-13.7-13.6-20.4c-2.2-3.1-4.3-6.3-6.7-9.2
				c-0.8-1-1.7-2-2.6-2.9c-0.3-0.3-0.6-0.6-0.9-0.9l0,0c-0.2-0.2-0.5-0.4-0.7-0.7c-0.5-0.4-1-0.9-1.5-1.3c-0.2-0.2-0.5-0.4-0.8-0.6
				s-0.7-0.5-1-0.8c-1.4-1-2.9-1.9-4.4-2.6l-1.2-0.5c-0.6-0.3-1.2-0.5-1.8-0.7s-1.2-0.4-1.9-0.6c-3.8-1.1-7.8-1.3-11.7-0.4
				c-4.2,1.1-7.4,3.1-8.1,7.8c-0.1,0.6-0.2,1.3-0.2,2c-0.1,1,0,1.9,0.1,2.9c0.7,4.6,1.7,9.2,2.6,13.9c0.8,3.2,1.3,6.5,1.6,9.8
				c0,1,0,2-0.1,3c-0.2,2.8-1.6,5.4-4,6.9c-3.7,2.5-8.1,3.8-12.6,3.8c-3.2,0-6.4-0.3-9.5-1.1l0,0c-0.8-0.2-1.5-0.4-2.3-0.7
				c-0.5-0.2-1-0.3-1.5-0.5s-1.1-0.4-1.7-0.7c-2.5-1.1-4.9-2.5-7.1-4.2c-0.7-0.5-1.4-1.1-2-1.7l-0.8-0.7c-0.4-0.4-0.8-0.8-1.3-1.2
				c-1.3-1.3-2.5-2.7-3.6-4.1c-0.6-0.7-1.1-1.5-1.7-2.2c-0.4-0.4-0.8-0.8-1.3-1.2c-0.5-0.4-1-0.7-1.5-1c-0.3-0.1-0.6-0.2-0.8-0.3
				c-2.1-0.6-4.1,0.1-6.1,2.2c-1.8,2-3.4,4.2-4.7,6.6c-2.9,5.3-5.2,11-6.8,16.8c-0.2,0.5-0.3,1-0.5,1.5l-0.1,0.2l-0.1,0.4H5.5
				c-2.1,0-4.1-0.5-5-2.7S0.2,70.7,1.6,69C7,62.4,12.4,55.8,19,50.3c2.7-2.2,5.6-4.2,8.7-6c1.6-0.9,3.3-1.5,5.1-1.7
				c4.4-0.9,8,0.7,10.8,4.3c0.9,1.2,1.7,2.5,2.7,3.8c0.6,0.8,1.2,1.5,1.9,2.1c1.8,1.5,3.6,1.6,5.3,0.1c1.5-1.2,2.7-2.7,3.7-4.4
				c2.4-4.5,4.6-9.1,6.9-13.7c3-6.1,5.9-12.3,9-18.3c1.7-3.3,4-6.4,6.8-8.9c5-4.6,10.8-5.9,17.1-3.4c3.1,1.3,6.1,3,8.8,5
				c7.2,5.3,12.9,12.1,18.3,19.1c10.3,13.2,19.3,27.3,27.8,41.7C153.9,73.3,152.4,76.6,148.9,77.2z"/>
		</g>
		<g>
			<path class="st1" d="M138.5,77.3h-30.2c-0.1-0.6-0.2-1.3-0.3-1.9c-0.3-2-0.6-3.9-0.7-5.8c0-0.6-0.1-1.3-0.1-1.9
				c0-0.2,0-0.5,0-0.7c0-0.6,0-1.2,0-1.8c0-0.4,0-0.8,0.1-1.2c0-0.3,0-0.5,0.1-0.8s0.1-0.5,0.1-0.8s0-0.3,0.1-0.4s0.1-0.5,0.1-0.7
				v-0.1c0-0.2,0.1-0.4,0.1-0.6s0.1-0.3,0.1-0.4s0.1-0.5,0.2-0.8c0.2-0.6,0.4-1.3,0.7-1.9c2.1-4.7,6-7,10-6.3c0.2,0,0.3,0.1,0.5,0.1
				c0.2,0,0.4,0.1,0.6,0.2s0.6,0.2,0.9,0.3l0.1,0.1c0.1,0,0.2,0.1,0.3,0.2c0.7,0.3,1.4,0.8,2.1,1.3c0.3,0.2,0.6,0.4,0.8,0.7
				c2.3,2.1,4.3,4.5,6,7c3.2,4.9,5.8,10.1,7.9,15.5c0.1,0.2,0.2,0.5,0.4,0.6c0,0,0.1,0.1,0.1,0.1C138.4,77.3,138.4,77.3,138.5,77.3z
				"/>
		</g>
		<g class="st2">
			<path class="st0" d="M206.5,6.5v33.6h-8.9V27.5h-10v12.7h-8.9V6.5h8.9v12.6h10V6.5H206.5z"/>
			<path class="st0" d="M219.6,6.5h8.9v33.6h-8.9V6.5z"/>
			<path class="st0" d="M271,23.4c0,10.4-7,16.8-18.4,16.8h-11V6.5l11,0C264,6.5,271,12.9,271,23.4z M262,23.3
				c0-5.3-3.7-8.5-9.7-8.5h-2v16.9h2.1C258.4,31.7,262,28.6,262,23.3z"/>
			<path class="st0" d="M312,23.4c0,10.4-7,16.8-18.4,16.8h-11V6.5l11,0C305,6.5,312,12.9,312,23.4z M303.1,23.3
				c0-5.3-3.7-8.5-9.7-8.5h-2v16.9h2.1C299.4,31.7,303.1,28.6,303.1,23.3z"/>
			<path class="st0" d="M332.5,14.8v4.7h10.7V27h-10.7v4.8h13v8.4h-21.8V6.5h21.8v8.3H332.5z"/>
			<path class="st0" d="M386.7,6.5v34h-2.8l-17.3-16.8v16.4h-8.9v-34h2.9l17.2,16.7V6.5H386.7z"/>
		</g>
		<g class="st2">
			<path class="st1" d="M462,8.6l-29.3,64.2H425L395.9,8.6h18.3L428.8,43l14.7-34.4H462z"/>
			<path class="st1" d="M468.3,8.6h24c13.1,0,24,9.9,24,22.3c0,12.3-10.7,22.6-24,22.6h-7.1v18.7h-16.9V8.6z M500.1,31
				c0-3.9-3.2-6.8-7.7-6.8h-7.1v13.7l7.1,0C496.9,37.9,500.1,34.9,500.1,31z"/>
			<path class="st1" d="M578.5,8.5v64.3h-5.4l-32.7-31.7v31.1h-16.9V8h5.4l32.6,31.5v-31H578.5z"/>
		</g>
		<g class="st2">
			<path class="st0" d="M196.3,52.3c-1-1.7-3.8-3.3-7.1-3.3c-4.2,0-6.2,1.8-6.2,4c0,2.6,3.1,3.3,6.7,3.8c6.2,0.8,12,2.4,12,9.5
				c0,6.7-5.9,9.5-12.6,9.5c-6.1,0-10.8-1.9-13-7.3l4.7-2.4c1.3,3.3,4.8,4.7,8.4,4.7c3.5,0,6.9-1.2,6.9-4.5c0-2.8-2.9-4-6.9-4.4
				c-6.1-0.7-11.7-2.3-11.7-9.1c0-6.2,6.1-8.7,11.6-8.7c4.7,0,9.5,1.3,11.7,5.9L196.3,52.3z"/>
		</g>
		<g class="st2">
			<path class="st0" d="M227.3,69.4h-15.6l-2.6,5.6H203l13.4-29.9h6.2L236,75h-6.2L227.3,69.4z M219.5,51.4l-5.6,12.7H225
				L219.5,51.4z"/>
		</g>
		<g class="st2">
			<path class="st0" d="M258.2,45h5.6v30h-3.5v0l-15.7-20.2V75h-5.6V45.1h4.6l14.7,18.5V45z"/>
		</g>
		<g class="st2">
			<path class="st0" d="M295.3,71.2c-3.1,3-7,4.4-11.4,4.4c-11.1,0-15.8-7.6-15.9-15.4c0-7.8,5-15.8,15.9-15.8c4.1,0,7.9,1.5,11,4.6
				l-3.8,3.6c-2-1.9-4.6-2.8-7.2-2.8c-7.2,0-10.3,5.4-10.3,10.4c0,5,2.9,10.1,10.3,10.1c2.6,0,5.6-1.1,7.5-3L295.3,71.2z"/>
			<path class="st0" d="M306.6,50.2h-9.5v-5.1c8.6,0,15.9,0,24.6,0v5.1h-9.5V75h-5.6V50.2z"/>
		</g>
		<g class="st2">
			<path class="st0" d="M351.5,45.1v17.1c0,8.8-5.4,13.4-12.9,13.4c-7.2,0-13.3-4.4-13.3-13.4V45.1h5.6v17.1c0,5.4,3.1,8.2,7.7,8.2
				c4.7,0,7.3-3.1,7.3-8.2V45.1H351.5z"/>
			<path class="st0" d="M383,53.3l-9.7,13h-1.1l-9.5-13V75H357V45.1h6.5l9.4,12.9l9.4-12.9h6.5V75H383V53.3z"/>
		</g>
	</g>
</g>
</svg>
